<svg xmlns="http://www.w3.org/2000/svg" width="13.813" height="20.08" viewBox="0 0 13.813 20.08">
  <g id="Group_2133" data-name="Group 2133" transform="translate(-329.448 -69.883)">
    <g id="Group_2132" data-name="Group 2132" transform="translate(11 8)">
      <g id="Group_2227" data-name="Group 2227">
        <g id="Group_2226" data-name="Group 2226" transform="translate(2.315 0.166)">
          <path id="Icon_awesome-microphone" data-name="Icon awesome-microphone" d="M6.906,13.8a3.766,3.766,0,0,0,3.767-3.765V3.765a3.767,3.767,0,0,0-7.534,0V10.04A3.766,3.766,0,0,0,6.906,13.8ZM13.185,7.53h-.628a.627.627,0,0,0-.628.627V10.04a5.027,5.027,0,0,1-5.525,5A5.173,5.173,0,0,1,1.884,9.816V8.157a.627.627,0,0,0-.628-.627H.628A.627.627,0,0,0,0,8.157V9.732a7.12,7.12,0,0,0,5.965,7.126V18.2h-2.2a.627.627,0,0,0-.628.627v.627a.627.627,0,0,0,.628.627h6.278a.627.627,0,0,0,.628-.627v-.627a.627.627,0,0,0-.628-.627h-2.2V16.873a6.91,6.91,0,0,0,5.965-6.833V8.157A.627.627,0,0,0,13.185,7.53Z" transform="translate(316.133 61.717)" fill="#cb4731"/>
        </g>
      </g>
    </g>
  </g>
</svg>
