<svg xmlns="http://www.w3.org/2000/svg" width="32.099" height="32.099" viewBox="0 0 32.099 32.099">
  <g id="Group_2211" data-name="Group 2211" transform="translate(41.356 -1175.592)">
    <path id="Path_68452" data-name="Path 68452" d="M16.049,0A16.049,16.049,0,1,1,0,16.049,16.049,16.049,0,0,1,16.049,0Z" transform="translate(-41.356 1175.592)" fill="#0d3880"/>
    <g id="sound-waves" transform="translate(-31.101 1183.677)">
      <path id="Path_68443" data-name="Path 68443" d="M.553,102.895a.553.553,0,0,0-.553.553v2.764a.553.553,0,1,0,1.106,0v-2.764A.553.553,0,0,0,.553,102.895Zm0,0" transform="translate(0 -96.814)" fill="#fff"/>
      <path id="Path_68444" data-name="Path 68444" d="M34.709,74.941a.553.553,0,0,0-.553.553v7.653a.553.553,0,0,0,1.106,0V75.494A.553.553,0,0,0,34.709,74.941Zm0,0" transform="translate(-31.39 -71.124)" fill="#fff"/>
      <path id="Path_68445" data-name="Path 68445" d="M68.819,27.8a.553.553,0,0,0-.553.553V43.832a.553.553,0,1,0,1.106,0V28.353A.553.553,0,0,0,68.819,27.8Zm0,0" transform="translate(-62.738 -27.801)" fill="#fff"/>
      <path id="Path_68446" data-name="Path 68446" d="M102.951,61.934a.553.553,0,0,0-.553.553v9.4a.553.553,0,1,0,1.106,0v-9.4A.553.553,0,0,0,102.951,61.934Zm0,0" transform="translate(-94.107 -59.17)" fill="#fff"/>
      <path id="Path_68451" data-name="Path 68451" d="M137.088,109.719a.553.553,0,0,0-.553.553v2.211a.553.553,0,1,0,1.105,0v-2.211A.553.553,0,0,0,137.088,109.719Zm0,0" transform="translate(-125.479 -103.085)" fill="#fff"/>
    </g>
  </g>
</svg>
